<svg xmlns="http://www.w3.org/2000/svg" viewBox="0 0 100 100" fill="none">
  <circle cx="50" cy="50" r="50" fill="#3b82f6" />
  <ellipse cx="50" cy="37" rx="30" ry="27" fill="white" />
  <circle cx="41" cy="31" r="5.5" fill="#3b82f6" opacity="0.75" />
  <circle cx="59" cy="31" r="5.5" fill="#3b82f6" opacity="0.75" />
  <g stroke="white" stroke-linecap="round" stroke-width="5" fill="none">
    <path d="M28,55 C20,67 18,79 22,91" />
    <path d="M36,61 C30,72 28,82 32,91" />
    <path d="M42,63 C38,74 37,83 40,91" />
    <path d="M47,64 C44,75 43,84 46,91" />
    <path d="M53,64 C56,75 57,84 54,91" />
    <path d="M58,63 C62,74 63,83 60,91" />
    <path d="M64,61 C70,72 72,82 68,91" />
    <path d="M72,55 C80,67 82,79 78,91" />
  </g>
</svg>
